<svg width="150" height="150" viewBox="0 0 150 150" fill="none" xmlns="http://www.w3.org/2000/svg">
<circle opacity="0.2" cx="75" cy="75" r="75" fill="#FF99AB"/>
<path fill-rule="evenodd" clip-rule="evenodd" d="M97.4995 59.5C97.4995 71.9264 87.4259 82 74.9995 82C62.573 82 52.4995 71.9264 52.4995 59.5C52.4995 47.0736 62.573 37 74.9995 37C87.4259 37 97.4995 47.0736 97.4995 59.5ZM89.9995 59.5C89.9995 67.7843 83.2837 74.5 74.9995 74.5C66.7152 74.5 59.9995 67.7843 59.9995 59.5C59.9995 51.2157 66.7152 44.5 74.9995 44.5C83.2837 44.5 89.9995 51.2157 89.9995 59.5Z" fill="#FFB2B6"/>
<path d="M74.9995 93.25C50.7205 93.25 30.0342 107.607 22.1543 127.72C24.0739 129.626 26.0961 131.429 28.2118 133.12C34.0796 114.654 52.4871 100.75 74.9995 100.75C97.5118 100.75 115.919 114.654 121.787 133.12C123.903 131.429 125.925 129.626 127.845 127.72C119.965 107.607 99.2784 93.25 74.9995 93.25Z" fill="#FFB2B6"/>
</svg>
