<svg width="19" height="19" viewBox="0 0 19 19" fill="none" xmlns="http://www.w3.org/2000/svg">
<path fill-rule="evenodd" clip-rule="evenodd" d="M18.14 9.45425C18.14 8.81607 18.0827 8.20243 17.9764 7.61334H9.5V11.0947H14.3436C14.135 12.2197 13.5009 13.1729 12.5477 13.8111V16.0693H15.4564C17.1582 14.5024 18.14 12.1952 18.14 9.45425Z" fill="#4285F4"/>
<path fill-rule="evenodd" clip-rule="evenodd" d="M9.49976 18.2497C11.9298 18.2497 13.967 17.4438 15.4561 16.0693L12.5475 13.8111C11.7416 14.3511 10.7107 14.6702 9.49976 14.6702C7.15567 14.6702 5.17158 13.087 4.46385 10.9597H1.45703V13.2915C2.93794 16.2329 5.98158 18.2497 9.49976 18.2497Z" fill="#34A853"/>
<path fill-rule="evenodd" clip-rule="evenodd" d="M4.46409 10.9597C4.28409 10.4197 4.18182 9.84289 4.18182 9.2497C4.18182 8.65652 4.28409 8.0797 4.46409 7.5397V5.20789H1.45727C0.847727 6.42289 0.5 7.79743 0.5 9.2497C0.5 10.702 0.847727 12.0765 1.45727 13.2915L4.46409 10.9597Z" fill="#FBBC05"/>
<path fill-rule="evenodd" clip-rule="evenodd" d="M9.49976 3.82924C10.8211 3.82924 12.0075 4.28333 12.9402 5.17515L15.5216 2.59379C13.9629 1.14151 11.9257 0.249695 9.49976 0.249695C5.98158 0.249695 2.93794 2.26651 1.45703 5.20788L4.46385 7.53969C5.17158 5.41242 7.15567 3.82924 9.49976 3.82924Z" fill="#EA4335"/>
</svg>
