<svg width="100" height="24" viewBox="0 0 100 24" fill="none" xmlns="http://www.w3.org/2000/svg">
<path d="M0 11.7812C0 10.4271 0.245173 9.10417 0.73552 7.8125C1.22587 6.5 1.94095 5.3125 2.88078 4.25C3.82062 3.1875 4.96476 2.34375 6.31321 1.71875C7.66166 1.07292 9.19399 0.75 10.9102 0.75C12.9533 0.75 14.7206 1.19792 16.2121 2.09375C17.724 2.98958 18.8477 4.15625 19.5832 5.59375L15.7217 8.34375C15.3948 7.55208 14.9556 6.9375 14.4039 6.5C13.8727 6.0625 13.2802 5.76042 12.6264 5.59375C11.9931 5.40625 11.3801 5.3125 10.7876 5.3125C9.82736 5.3125 8.98968 5.51042 8.27459 5.90625C7.55951 6.28125 6.967 6.79167 6.49709 7.4375C6.02717 8.08333 5.67984 8.80208 5.4551 9.59375C5.23036 10.3854 5.11799 11.1771 5.11799 11.9687C5.11799 12.8437 5.25079 13.6875 5.5164 14.5C5.782 15.3125 6.15998 16.0312 6.65032 16.6562C7.1611 17.2812 7.77403 17.7812 8.48912 18.1562C9.20421 18.5104 9.99081 18.6875 10.8489 18.6875C11.4618 18.6875 12.085 18.5833 12.7184 18.375C13.3517 18.1667 13.934 17.8438 14.4652 17.4062C15.0169 16.9479 15.4357 16.3542 15.7217 15.625L19.8284 18.0938C19.3993 19.1771 18.6945 20.1042 17.7138 20.875C16.7331 21.6458 15.6196 22.2396 14.3733 22.6562C13.1474 23.0521 11.9318 23.25 10.7263 23.25C9.15313 23.25 7.70252 22.9271 6.3745 22.2812C5.06691 21.6146 3.93299 20.7396 2.97272 19.6562C2.03289 18.5521 1.29737 17.3229 0.766166 15.9688C0.255389 14.5938 0 13.1979 0 11.7812Z" fill="#FF5169"/>
<path d="M42.5577 23.0625V0.875H47.5837V10.4375L55.5518 0.875H61.1908L53.0388 10.7812L61.7425 23.0625H55.9809L49.8516 14.1562L47.5837 16.5312V23.0625H42.5577Z" fill="#FF5169"/>
<path d="M78.6505 18.5625V23.0625H63.3579V0.875H78.3747V5.375H68.3839V9.6875H76.965V13.8438H68.3839V18.5625H78.6505Z" fill="#FF5169"/>
<path d="M85.0751 0.875L89.764 10.6875L94.5143 0.875H100L92.2464 15.5V23.0625H87.251V15.4375L79.62 0.875H85.0751Z" fill="#FF5169"/>
<path d="M35.6349 5.22547C35.0084 3.90431 33.5465 4.12445 32.8939 4.39969C31.6949 3.13189 30.5444 3.16111 29.7613 3.98694C27.3796 6.49845 29.3697 9.76707 32.1107 9.76699C35.6349 9.76687 36.418 6.87691 35.6349 5.22547Z" fill="#FF5169"/>
<path d="M22.1572 14.5002C22.6725 15.5521 40.0344 13.4483 40.0344 12.3965M22.1572 14.5002C22.1572 15.112 22.1572 16.056 22.1572 17.1297M22.1572 14.5002C22.3701 13.1201 26.0476 9.42292 28.8201 7.30616M40.0344 12.3965V15.552M40.0344 12.3965C40.0344 11.7593 37.7826 9.25678 35.799 7.36703M22.1572 17.1297C25.077 17.4803 31.3781 17.6556 40.0344 15.552M22.1572 17.1297C22.1572 17.9599 22.1572 18.8676 22.1572 19.7593M40.0344 15.552V18.4445M22.1572 19.7593C22.1572 20.6884 22.1572 21.6002 22.1572 22.3888C26.4137 23.5368 37.2864 22.2135 40.0344 21.337V18.4445M22.1572 19.7593C25.4205 20.1099 32.2025 20.3378 40.0344 18.4445M32.8939 4.39969C33.5465 4.12445 35.0084 3.90431 35.6349 5.22547C36.418 6.87691 35.6349 9.76687 32.1107 9.76699C29.3697 9.76707 27.3796 6.49845 29.7613 3.98694C30.5444 3.16111 31.6949 3.13189 32.8939 4.39969ZM32.8939 4.39969C32.6978 3.03331 32.9239 0.510926 35.3971 1.35239" stroke="#FF5169"/>
</svg>
