<svg width="20" height="24" viewBox="0 0 20 24" fill="none" xmlns="http://www.w3.org/2000/svg">
<path d="M14.5702 5.10616C13.9394 3.76375 12.4675 3.98743 11.8104 4.2671C10.6032 2.9789 9.44482 3.00859 8.65629 3.84771C6.25826 6.39962 8.26203 9.72084 11.0219 9.72075C14.5702 9.72064 15.3587 6.78417 14.5702 5.10616Z" fill="#FF5775"/>
<path d="M1 14.5301C1.5188 15.5989 19 13.4613 19 12.3926M1 14.5301C1 15.1518 1 16.111 1 17.202M1 14.5301C1.21429 13.1278 4.91714 9.37115 7.70867 7.22033M19 12.3926V15.5988M19 12.3926C19 11.7451 16.7326 9.20234 14.7354 7.28218M1 17.202C3.93985 17.5582 10.2842 17.7363 19 15.5988M1 17.202C1 18.0455 1 18.9678 1 19.8738M19 15.5988V18.5379M1 19.8738C1 20.8179 1 21.7444 1 22.5457C5.28571 23.7121 16.2331 22.3676 19 21.4769V18.5379M1 19.8738C4.28571 20.2301 11.1143 20.4616 19 18.5379M11.8104 4.2671C12.4675 3.98743 13.9394 3.76375 14.5702 5.10616C15.3587 6.78417 14.5702 9.72064 11.0219 9.72075C8.26203 9.72084 6.25826 6.39962 8.65629 3.84771C9.44482 3.00859 10.6032 2.9789 11.8104 4.2671ZM11.8104 4.2671C11.6129 2.87874 11.8406 0.315765 14.3308 1.17076" stroke="#FF5775"/>
</svg>
