<svg width="151" height="150" viewBox="0 0 151 150" fill="none" xmlns="http://www.w3.org/2000/svg">
<circle cx="75.5" cy="75" r="75" fill="#DEE2E6"/>
<path d="M90.9768 91.0453L105 105M99.5941 72.526C99.5941 87.7281 87.3728 100.052 72.2971 100.052C57.2213 100.052 45 87.7281 45 72.526C45 57.3238 57.2213 45 72.2971 45C87.3728 45 99.5941 57.3238 99.5941 72.526Z" stroke="white" stroke-width="5"/>
<path d="M74.398 63.2031H70.1871L70.5425 77.0664H74.0425L74.398 63.2031ZM70.023 80.9492C69.9956 82.2207 71.0347 83.2461 72.3199 83.2461C73.5367 83.2461 74.5894 82.2207 74.5894 80.9492C74.5894 79.6914 73.5367 78.666 72.3199 78.6797C71.0347 78.666 69.9956 79.6914 70.023 80.9492Z" fill="white"/>
</svg>
