<svg width="9" height="7" viewBox="0 0 9 7" fill="none" xmlns="http://www.w3.org/2000/svg">
<path d="M4 4.94118C4 6.07823 3.10457 7 2 7C0.89543 7 0 6.07823 0 4.94118C0 3.80412 0.89543 2.88235 2 2.88235C3.10457 2.88235 4 3.80412 4 4.94118Z" fill="#FF99AB"/>
<path d="M2.67273 0C1.87273 0.205882 -3.06872e-10 2.05882 0 4.94118C1.26673 5.07842 2.26493 5.64147 1.73242 2.90062C1.53242 1.87121 3.27273 0 2.67273 0Z" fill="#FF99AB"/>
<path d="M9 4.94118C9 6.07823 8.10457 7 7 7C5.89543 7 5 6.07823 5 4.94118C5 3.80412 5.89543 2.88235 7 2.88235C8.10457 2.88235 9 3.80412 9 4.94118Z" fill="#FF99AB"/>
<path d="M7.67273 2.38419e-07C6.87273 0.205883 5 2.05882 5 4.94118C6.26673 5.07842 7.26493 5.64147 6.73242 2.90062C6.53242 1.87121 8.27273 2.38419e-07 7.67273 2.38419e-07Z" fill="#FF99AB"/>
</svg>
