<svg width="16" height="16" viewBox="0 0 16 16" fill="none" xmlns="http://www.w3.org/2000/svg">
<path d="M7.29254 0.708157C7.68315 0.317166 8.31685 0.317166 8.70746 0.708157L9.80421 1.806C10.0134 2.01536 10.3045 2.12133 10.5993 2.09539L12.1452 1.95938C12.6957 1.91094 13.1812 2.31828 13.229 2.86887L13.3635 4.41485C13.3892 4.70967 13.5441 4.978 13.7866 5.14762L15.0582 6.03708C15.5111 6.35385 15.6211 6.97793 15.3039 7.43049L14.4132 8.70123C14.2433 8.94356 14.1895 9.24869 14.2663 9.5345L14.6686 11.0332C14.812 11.567 14.4951 12.1158 13.9612 12.2586L12.4621 12.6595C12.1762 12.7359 11.9388 12.9351 11.8139 13.2034L11.1587 14.6101C10.9254 15.1111 10.3299 15.3279 9.82917 15.0941L8.42307 14.4375C8.15492 14.3123 7.84508 14.3123 7.57693 14.4375L6.17084 15.0941C5.67006 15.3279 5.07457 15.1111 4.84125 14.6101L4.18612 13.2034C4.06118 12.9351 3.82384 12.7359 3.53795 12.6595L2.03881 12.2586C1.5049 12.1158 1.18804 11.567 1.33135 11.0332L1.73373 9.53451C1.81047 9.24869 1.75667 8.94356 1.5868 8.70123L0.696088 7.43049C0.378865 6.97793 0.488907 6.35385 0.941785 6.03708L2.2134 5.14762C2.4559 4.978 2.61082 4.70967 2.63647 4.41485L2.77095 2.86887C2.81885 2.31828 3.30429 1.91094 3.85484 1.95938L5.40068 2.09539C5.69548 2.12133 5.98663 2.01536 6.19579 1.806L7.29254 0.708157Z" fill="#393CFF"/>
<path d="M5.5 8L7.5 9.78125L11 6.5" stroke="white"/>
</svg>
