<svg width="24" height="24" viewBox="0 0 24 24" fill="ffffff" xmlns="http://www.w3.org/2000/svg">
<path fill-rule="evenodd" clip-rule="evenodd" d="M20.8446 4.52L21.8946 8.89C22.1446 9.91 21.9146 10.96 21.2746 11.78C21.221 11.8471 21.1538 11.9096 21.0883 11.9707C21.0561 12.0007 21.0243 12.0304 20.9946 12.06V14H19.0046V12.97C18.9766 12.9735 18.9497 12.9782 18.9233 12.9829C18.8743 12.9916 18.8266 13 18.7746 13C17.9046 13 17.1146 12.64 16.5346 12.05C15.9346 12.65 15.1346 13 14.2946 13C13.3946 13 12.5946 12.64 12.0046 12.07C11.4246 12.64 10.6446 13 9.77464 13C8.86464 13 8.06464 12.65 7.46464 12.05C6.88464 12.64 6.09464 13 5.22464 13C5.17271 13 5.12499 12.9916 5.07602 12.9829C5.04955 12.9782 5.02271 12.9735 4.99464 12.97V19H13V21H4.99464C3.89464 21 2.99464 20.1 2.99464 19V12.06C2.95864 12.02 2.91943 11.9832 2.88023 11.9464C2.82143 11.8912 2.76264 11.836 2.71464 11.77C2.07464 10.95 1.85464 9.91 2.09464 8.89L3.14464 4.52C3.35464 3.63 4.14464 3 5.04464 3H18.9346C19.8446 3 20.6246 3.62 20.8446 4.52ZM19.9546 9.36L18.9046 4.99L16.9746 5L17.5546 9.86C17.6246 10.51 18.1546 11 18.7646 11C19.2646 11 19.5646 10.71 19.7046 10.53C19.9646 10.2 20.0546 9.78 19.9546 9.36ZM14.9546 5H12.9946V9.69C12.9946 10.41 13.5446 11 14.2146 11C14.6246 11 14.9446 10.85 15.1646 10.59C15.4246 10.3 15.5446 9.91 15.4946 9.52L14.9546 5ZM9.03464 5L8.48464 9.52C8.44464 9.91 8.56464 10.3 8.81464 10.59C9.05464 10.85 9.36464 11 9.70464 11C10.4446 11 10.9946 10.41 10.9946 9.69V5H9.03464ZM5.04464 5L4.03464 9.36C3.93464 9.78 4.02464 10.21 4.29464 10.53C4.42464 10.71 4.73464 11 5.22464 11C5.83464 11 6.35464 10.51 6.43464 9.86L7.01464 5H5.04464Z" fill="#ffffff"/>
<rect x="17" y="15" width="2" height="8" fill="#ffffff"/>
<rect x="22" y="18" width="2" height="8" transform="rotate(90 22 18)" fill="#ffffff"/>
</svg>
